<svg width="800" height="800" viewBox="0 0 800 800" fill="none" xmlns="http://www.w3.org/2000/svg">
  <g transform="translate(150, 150) scale(0.625)">
    <path d="M187 250C243 300 349 371 512 307C415 352 301 342 187 250Z" fill="#D3D3D3"/>
    <path d="M460 167L520 107L573 170L518 203L460 167Z" fill="#D3D3D3"/>
    <path d="M462 242L511 205L528 236L476 250L462 242Z" fill="#D3D3D3"/>
    <path d="M260 249L296 219L312 244L271 256L260 249Z" fill="#D3D3D3"/>
    <path d="M341 205L376 175L394 201L352 214L341 205Z" fill="#D3D3D3"/>
    <path d="M454 344C560 300 580 265 573 170L518 203C529 255 522 282 454 344Z" fill="#D3D3D3"/>
    <path d="M161 332C143 350 117 373 147 427C177 481 323 476 443 427C323 467 188 481 143 427C98 373 161 332 161 332Z" fill="#D3D3D3"/>
    <path d="M190 558L265 558L265 444L335 558L417 558L322 400L404 254L322 254L322 380L260 254L179 254L260 400L190 558Z" fill="#D3D3D3"/>
    <path d="M435 558L497 558L497 400C497 373 519 344 553 344C587 344 609 373 609 400L609 558L671 558L671 400C671 339 620 289 553 289C486 289 435 339 435 400L435 558Z" fill="#1E90FF"/>
    <path d="M696 558L758 558L758 254L696 254L696 558Z" fill="#1E90FF"/>
  </g>
</svg>
